<svg width="86" height="18" viewBox="0 0 86 18" fill="none" xmlns="http://www.w3.org/2000/svg">
<path d="M76.91 11.9389C77.1506 12.6733 77.6191 13.2399 78.3155 13.6387C79.0118 14.0376 79.895 14.237 80.9649 14.237C81.7815 14.237 82.6013 14.1199 83.4243 13.8856C84.2473 13.6514 84.9849 13.3222 85.6369 12.898V15.0252C84.9216 15.5316 84.0891 15.9273 83.1395 16.2122C82.1962 16.4907 81.2086 16.63 80.1767 16.63C78.8979 16.63 77.752 16.3926 76.7391 15.9178C75.7262 15.4367 74.9348 14.7656 74.3651 13.9046C73.7953 13.0373 73.5104 12.0402 73.5104 10.9134C73.5104 9.80549 73.7827 8.82423 74.3271 7.96959C74.8715 7.10861 75.6281 6.44072 76.5967 5.96591C77.5653 5.49111 78.6605 5.25371 79.8823 5.25371C81.1105 5.25371 82.1804 5.52909 83.092 6.07987C84.0036 6.62431 84.7031 7.40299 85.1906 8.4159C85.6844 9.42249 85.9313 10.5968 85.9313 11.9389H76.91ZM79.9013 7.58974C79.0973 7.58974 78.4231 7.79233 77.8786 8.19749C77.3405 8.59633 76.986 9.14077 76.8151 9.83082H82.8451C82.6615 9.11545 82.3133 8.56467 81.8005 8.1785C81.2941 7.786 80.661 7.58974 79.9013 7.58974Z" fill="#BFBDF3"/>
<path d="M68.1172 16.3451V1.72116H71.2984V16.3451H68.1172Z" fill="#BFBDF3"/>
<path d="M65.7836 7.78916L58.5191 13.9996H65.8216V16.3451H54.5023V14.1041L61.7858 7.88412H54.5687V5.54809H65.7836V7.78916Z" fill="#BFBDF3"/>
<path d="M52.6434 7.78916L45.3789 13.9996H52.6814V16.3451H41.3621V14.1041L48.6456 7.88412H41.4285V5.54809H52.6434V7.78916Z" fill="#BFBDF3"/>
<path d="M35.8929 16.3451V5.42463L37.4883 5.72851L39.0741 5.42463V16.3451H35.8929ZM37.4788 4.3041C36.9027 4.3041 36.4342 4.15533 36.0733 3.85778C35.7188 3.55391 35.5416 3.15507 35.5416 2.66128C35.5416 2.16748 35.7188 1.77181 36.0733 1.47427C36.4342 1.17039 36.9027 1.01846 37.4788 1.01846C38.0612 1.01846 38.5297 1.17039 38.8842 1.47427C39.245 1.77181 39.4255 2.16748 39.4255 2.66128C39.4255 3.15507 39.245 3.55391 38.8842 3.85778C38.5297 4.15533 38.0612 4.3041 37.4788 4.3041Z" fill="#BFBDF3"/>
<path d="M33.6256 16.3451H30.4539L30.0646 13.9426C29.6151 14.8036 29.0168 15.4683 28.2698 15.9368C27.5228 16.3989 26.6871 16.63 25.7629 16.63C24.7753 16.63 23.927 16.4274 23.2179 16.0223C22.5089 15.6108 21.9676 15.0252 21.5941 14.2655C21.2206 13.4995 21.0338 12.5942 21.0338 11.5496V5.54809H24.2055V11.0843C24.2055 12.0402 24.4302 12.7714 24.8797 13.2779C25.3355 13.778 25.9876 14.0281 26.8359 14.0281C27.4437 14.0281 27.9691 13.8983 28.4123 13.6387C28.8554 13.3729 29.1941 12.9962 29.4283 12.5087C29.6689 12.0149 29.7892 11.4357 29.7892 10.7709V5.54809H32.9609V12.7271L33.6256 16.3451Z" fill="#BFBDF3"/>
<path d="M18.7061 8.33281C18.7061 9.65751 18.4461 10.8647 17.9262 11.9544C17.4134 13.0369 16.6799 13.9521 15.7255 14.6999L18.3642 17.4989H13.9094L12.7129 16.2062C11.6659 16.5125 10.5442 16.6656 9.3477 16.6656C7.51021 16.6656 5.88282 16.3202 4.46553 15.6294C3.04824 14.9314 1.94788 13.9521 1.16446 12.6915C0.388152 11.4309 0 9.978 0 8.33281C0 6.68761 0.388152 5.23471 1.16446 3.97411C1.94788 2.7135 3.04824 1.73778 4.46553 1.04694C5.88282 0.348981 7.51021 0 9.3477 0C11.1923 0 12.8197 0.348981 14.2299 1.04694C15.6472 1.73778 16.7475 2.7135 17.5309 3.97411C18.3144 5.23471 18.7061 6.68761 18.7061 8.33281ZM9.3477 13.4286C9.60409 13.4286 9.8498 13.418 10.0848 13.3966L6.95469 10.0314H11.3241L13.3539 12.1787C13.8951 11.7371 14.3082 11.1923 14.5931 10.5442C14.8851 9.88898 15.0311 9.15184 15.0311 8.33281C15.0311 7.29299 14.7996 6.39205 14.3367 5.62999C13.8809 4.8608 13.2221 4.26967 12.3603 3.85659C11.5057 3.44351 10.5015 3.23697 9.3477 3.23697C8.19393 3.23697 7.18972 3.44351 6.33507 3.85659C5.48042 4.26967 4.82163 4.8608 4.3587 5.62999C3.89577 6.39205 3.6643 7.29299 3.6643 8.33281C3.6643 9.37263 3.89577 10.2771 4.3587 11.0463C4.82163 11.8084 5.48042 12.3959 6.33507 12.809C7.18972 13.2221 8.19393 13.4286 9.3477 13.4286Z" fill="#BFBDF3"/>
</svg>
